<svg width="22" height="18" viewBox="0 0 22 18" fill="none" xmlns="http://www.w3.org/2000/svg">
    <path d="M5.71875 3.90625C6.40625 3.34375 7.1875 2.88542 8.0625 2.53125C8.95833 2.19792 9.9375 2.02083 11 2C12.2708 2.02083 13.4062 2.27083 14.4062 2.75C15.4062 3.22917 16.2812 3.82292 17.0312 4.53125C17.7604 5.21875 18.3646 5.92708 18.8438 6.65625C19.3229 7.38542 19.6875 8.04167 19.9375 8.625C20.0208 8.875 20.0208 9.125 19.9375 9.375C19.7083 9.89583 19.3854 10.4792 18.9688 11.125C18.5521 11.7917 18.0417 12.4479 17.4375 13.0938L20.7188 15.6562C21.0521 15.9688 21.0938 16.3229 20.8438 16.7188C20.5312 17.0521 20.1771 17.0938 19.7812 16.8438L1.28125 2.34375C0.947917 2.03125 0.90625 1.67708 1.15625 1.28125C1.46875 0.947917 1.82292 0.90625 2.21875 1.15625L5.71875 3.90625ZM7.96875 5.6875L10.7812 7.875C10.9271 7.625 11 7.32292 11 6.96875C10.9792 6.63542 10.8958 6.3125 10.75 6C10.7708 6 10.8021 6 10.8438 6C10.9062 5.97917 10.9583 5.96875 11 5.96875C11.8542 5.98958 12.5625 6.28125 13.125 6.84375C13.6875 7.40625 13.9792 8.11458 14 8.96875C14 9.42708 13.9062 9.84375 13.7188 10.2188L14.9688 11.1562C15.3229 10.5104 15.5 9.78125 15.5 8.96875C15.4583 7.71875 15.0208 6.66667 14.1875 5.8125C13.3333 4.95833 12.2708 4.51042 11 4.46875C9.8125 4.51042 8.80208 4.91667 7.96875 5.6875ZM11 16C9.72917 15.9792 8.59375 15.7292 7.59375 15.25C6.59375 14.7708 5.71875 14.1771 4.96875 13.4688C4.23958 12.7604 3.63542 12.0521 3.15625 11.3438C2.67708 10.6146 2.3125 9.95833 2.0625 9.375C1.97917 9.125 1.97917 8.875 2.0625 8.625C2.375 7.875 2.88542 7.02083 3.59375 6.0625L6.53125 8.375C6.51042 8.58333 6.5 8.78125 6.5 8.96875C6.54167 10.2604 6.97917 11.3333 7.8125 12.1875C8.66667 13.0208 9.72917 13.4583 11 13.5C11.5833 13.5 12.1354 13.3958 12.6562 13.1875L14.9375 15C13.8125 15.625 12.5 15.9583 11 16Z" fill="#6B7280"/>
</svg>
