<svg width="16" height="16" viewBox="0 0 16 16" fill="none" xmlns="http://www.w3.org/2000/svg">
    <path d="M8 9C9.27083 8.95833 10.3333 8.52083 11.1875 7.6875C12.0208 6.83333 12.4583 5.77083 12.5 4.5C12.4583 3.22917 12.0208 2.16667 11.1875 1.3125C10.3333 0.479167 9.27083 0.0416667 8 0C6.72917 0.0416667 5.66667 0.479167 4.8125 1.3125C3.97917 2.16667 3.54167 3.22917 3.5 4.5C3.54167 5.77083 3.97917 6.83333 4.8125 7.6875C5.66667 8.52083 6.72917 8.95833 8 9ZM10.9688 10H5C3.58333 10.0417 2.40625 10.5312 1.46875 11.4688C0.53125 12.4062 0.0416667 13.5833 0 15C0 15.2917 0.09375 15.5312 0.28125 15.7188C0.46875 15.9062 0.697917 16 0.96875 16H15C15.2917 16 15.5208 15.9062 15.6875 15.7188C15.875 15.5312 15.9688 15.2917 15.9688 15C15.9479 13.5833 15.4688 12.4062 14.5312 11.4688C13.5938 10.5312 12.4062 10.0417 10.9688 10Z" fill="#6B7280"/>
</svg>
