<svg width="13" height="13" viewBox="0 0 13 13" fill="#6B7280" xmlns="http://www.w3.org/2000/svg">
<path d="M12.1484 10.6016C12.3828 10.862 12.5 11.1615 12.5 11.5C12.5 11.8385 12.3828 12.138 12.1484 12.3984C11.888 12.6328 11.5885 12.75 11.25 12.75C10.9115 12.75 10.612 12.6328 10.3516 12.3984L6.25 8.25781L2.14844 12.3984C1.88802 12.6328 1.58854 12.75 1.25 12.75C0.911458 12.75 0.611979 12.6328 0.351562 12.3984C0.117188 12.138 0 11.8385 0 11.5C0 11.1615 0.117188 10.862 0.351562 10.6016L4.49219 6.5L0.351562 2.39844C0.117188 2.13802 0 1.83854 0 1.5C0 1.16146 0.117188 0.861979 0.351562 0.601562C0.611979 0.367188 0.911458 0.25 1.25 0.25C1.58854 0.25 1.88802 0.367188 2.14844 0.601562L6.25 4.74219L10.3516 0.601562C10.612 0.367188 10.9115 0.25 11.25 0.25C11.5885 0.25 11.888 0.367188 12.1484 0.601562C12.3828 0.861979 12.5 1.16146 12.5 1.5C12.5 1.83854 12.3828 2.13802 12.1484 2.39844L8.00781 6.5L12.1484 10.6016Z" fill="#6B7280"/>
</svg>
